<svg xmlns="http://www.w3.org/2000/svg" style="display:none">

  

  <symbol id="icon-open" viewBox="0 0 24 24">
    <path d="M3 9 L3 19 A1 1 0 0 0 4 20 H20 A1 1 0 0 0 21 19 V9 H3 Z" fill="none" stroke="currentColor" stroke-width="1.5" stroke-linejoin="round"></path>
    <path d="M3 9 L3 7 A1 1 0 0 1 4 6 H9 L11 4 H18 A1 1 0 0 1 19 5 V6" fill="none" stroke="currentColor" stroke-width="1.5" stroke-linejoin="round"></path>
  </symbol>

  <symbol id="icon-save" viewBox="0 0 24 24">
    <path d="M4 3 H17 L21 7 V20 A1 1 0 0 1 20 21 H4 A1 1 0 0 1 3 20 V4 A1 1 0 0 1 4 3 Z" fill="none" stroke="currentColor" stroke-width="1.5" stroke-linejoin="round"></path>
    <rect x="7" y="3" width="8" height="5" rx="0.5" fill="none" stroke="currentColor" stroke-width="1.5"></rect>
    <rect x="7" y="13" width="10" height="8" rx="0.5" fill="none" stroke="currentColor" stroke-width="1.5"></rect>
  </symbol>

  <symbol id="icon-export" viewBox="0 0 24 24">
    <path d="M13 3 H6 A1 1 0 0 0 5 4 V20 A1 1 0 0 0 6 21 H18 A1 1 0 0 0 19 20 V9 Z" fill="none" stroke="currentColor" stroke-width="1.5" stroke-linejoin="round"></path>
    <path d="M13 3 V9 H19" fill="none" stroke="currentColor" stroke-width="1.5" stroke-linejoin="round"></path>
    <line x1="12" y1="12" x2="12" y2="18" stroke="currentColor" stroke-width="1.5" stroke-linecap="round"></line>
    <polyline points="9,15 12,18 15,15" fill="none" stroke="currentColor" stroke-width="1.5" stroke-linecap="round" stroke-linejoin="round"></polyline>
  </symbol>

  <symbol id="icon-print" viewBox="0 0 24 24">
    <rect x="7" y="14" width="10" height="7" rx="0.5" fill="none" stroke="currentColor" stroke-width="1.5" stroke-linejoin="round"></rect>
    <path d="M7 17 H4 A1 1 0 0 1 3 16 V10 A1 1 0 0 1 4 9 H20 A1 1 0 0 1 21 10 V16 A1 1 0 0 1 20 17 H17" fill="none" stroke="currentColor" stroke-width="1.5" stroke-linejoin="round"></path>
    <path d="M7 9 V4 A0.5 0.5 0 0 1 7.5 3.5 H16.5 A0.5 0.5 0 0 1 17 4 V9" fill="none" stroke="currentColor" stroke-width="1.5" stroke-linejoin="round"></path>
    <circle cx="17.5" cy="12.5" r="1" fill="currentColor"></circle>
  </symbol>

  <symbol id="icon-close" viewBox="0 0 24 24">
    <path d="M13 3 H6 A1 1 0 0 0 5 4 V20 A1 1 0 0 0 6 21 H18 A1 1 0 0 0 19 20 V9 Z" fill="none" stroke="currentColor" stroke-width="1.5" stroke-linejoin="round"></path>
    <path d="M13 3 V9 H19" fill="none" stroke="currentColor" stroke-width="1.5" stroke-linejoin="round"></path>
    <line x1="9.5" y1="13.5" x2="14.5" y2="18.5" stroke="currentColor" stroke-width="1.5" stroke-linecap="round"></line>
    <line x1="14.5" y1="13.5" x2="9.5" y2="18.5" stroke="currentColor" stroke-width="1.5" stroke-linecap="round"></line>
  </symbol>

  

  <symbol id="icon-undo" viewBox="0 0 24 24">
    <path d="M7 7 C9 4 13 3 17 5 C21 7 22 12 20 16 C18 20 13 22 9 20 C5 18 3 13 5 9" fill="none" stroke="currentColor" stroke-width="1.5" stroke-linecap="round"></path>
    <polyline points="3,7 7,7 7,3" fill="none" stroke="currentColor" stroke-width="1.5" stroke-linecap="round" stroke-linejoin="round"></polyline>
  </symbol>

  <symbol id="icon-redo" viewBox="0 0 24 24">
    <path d="M17 7 C15 4 11 3 7 5 C3 7 2 12 4 16 C6 20 11 22 15 20 C19 18 21 13 19 9" fill="none" stroke="currentColor" stroke-width="1.5" stroke-linecap="round"></path>
    <polyline points="21,7 17,7 17,3" fill="none" stroke="currentColor" stroke-width="1.5" stroke-linecap="round" stroke-linejoin="round"></polyline>
  </symbol>

  

  <symbol id="icon-zoom-in" viewBox="0 0 24 24">
    <circle cx="10.5" cy="10.5" r="6.5" fill="none" stroke="currentColor" stroke-width="1.5"></circle>
    <line x1="15.5" y1="15.5" x2="21" y2="21" stroke="currentColor" stroke-width="1.5" stroke-linecap="round"></line>
    <line x1="7.5" y1="10.5" x2="13.5" y2="10.5" stroke="currentColor" stroke-width="1.5" stroke-linecap="round"></line>
    <line x1="10.5" y1="7.5" x2="10.5" y2="13.5" stroke="currentColor" stroke-width="1.5" stroke-linecap="round"></line>
  </symbol>

  <symbol id="icon-zoom-out" viewBox="0 0 24 24">
    <circle cx="10.5" cy="10.5" r="6.5" fill="none" stroke="currentColor" stroke-width="1.5"></circle>
    <line x1="15.5" y1="15.5" x2="21" y2="21" stroke="currentColor" stroke-width="1.5" stroke-linecap="round"></line>
    <line x1="7.5" y1="10.5" x2="13.5" y2="10.5" stroke="currentColor" stroke-width="1.5" stroke-linecap="round"></line>
  </symbol>

  <symbol id="icon-fit-page" viewBox="0 0 24 24">
    <polyline points="3,9 3,3 9,3" fill="none" stroke="currentColor" stroke-width="1.5" stroke-linecap="round" stroke-linejoin="round"></polyline>
    <polyline points="15,3 21,3 21,9" fill="none" stroke="currentColor" stroke-width="1.5" stroke-linecap="round" stroke-linejoin="round"></polyline>
    <polyline points="21,15 21,21 15,21" fill="none" stroke="currentColor" stroke-width="1.5" stroke-linecap="round" stroke-linejoin="round"></polyline>
    <polyline points="9,21 3,21 3,15" fill="none" stroke="currentColor" stroke-width="1.5" stroke-linecap="round" stroke-linejoin="round"></polyline>
  </symbol>

  <symbol id="icon-search" viewBox="0 0 24 24">
    <circle cx="10.5" cy="10.5" r="6.5" fill="none" stroke="currentColor" stroke-width="1.5"></circle>
    <line x1="15.5" y1="15.5" x2="21" y2="21" stroke="currentColor" stroke-width="1.5" stroke-linecap="round"></line>
    <line x1="8" y1="10.5" x2="13" y2="10.5" stroke="currentColor" stroke-width="1.5" stroke-linecap="round"></line>
  </symbol>

  <symbol id="icon-thumbnails" viewBox="0 0 24 24">
    <rect x="3" y="3" width="8" height="8" rx="1" fill="none" stroke="currentColor" stroke-width="1.5"></rect>
    <rect x="13" y="3" width="8" height="8" rx="1" fill="none" stroke="currentColor" stroke-width="1.5"></rect>
    <rect x="3" y="13" width="8" height="8" rx="1" fill="none" stroke="currentColor" stroke-width="1.5"></rect>
    <rect x="13" y="13" width="8" height="8" rx="1" fill="none" stroke="currentColor" stroke-width="1.5"></rect>
  </symbol>

  

  <symbol id="icon-rotate-cw" viewBox="0 0 24 24">
    <path d="M16 3 C20 5 22 9 21 13 C20 17 16 20 12 20 C8 20 4 17 3 13 C2 9 4 5 8 3" fill="none" stroke="currentColor" stroke-width="1.5" stroke-linecap="round"></path>
    <polyline points="16,3 16,8 21,8" fill="none" stroke="currentColor" stroke-width="1.5" stroke-linecap="round" stroke-linejoin="round"></polyline>
  </symbol>

  <symbol id="icon-rotate-ccw" viewBox="0 0 24 24">
    <path d="M8 3 C4 5 2 9 3 13 C4 17 8 20 12 20 C16 20 20 17 21 13 C22 9 20 5 16 3" fill="none" stroke="currentColor" stroke-width="1.5" stroke-linecap="round"></path>
    <polyline points="8,3 8,8 3,8" fill="none" stroke="currentColor" stroke-width="1.5" stroke-linecap="round" stroke-linejoin="round"></polyline>
  </symbol>

  <symbol id="icon-crop" viewBox="0 0 24 24">
    <polyline points="7,2 7,7 2,7" fill="none" stroke="currentColor" stroke-width="1.5" stroke-linecap="round" stroke-linejoin="round"></polyline>
    <polyline points="17,22 17,17 22,17" fill="none" stroke="currentColor" stroke-width="1.5" stroke-linecap="round" stroke-linejoin="round"></polyline>
    <rect x="7" y="7" width="10" height="10" rx="0.5" fill="none" stroke="currentColor" stroke-width="1.5" stroke-dasharray="2.5 2"></rect>
  </symbol>

  <symbol id="icon-page-add" viewBox="0 0 24 24">
    <path d="M14 3 H6 A1 1 0 0 0 5 4 V20 A1 1 0 0 0 6 21 H18 A1 1 0 0 0 19 20 V8 Z" fill="none" stroke="currentColor" stroke-width="1.5" stroke-linejoin="round"></path>
    <path d="M14 3 V8 H19" fill="none" stroke="currentColor" stroke-width="1.5" stroke-linejoin="round"></path>
    <line x1="9" y1="14" x2="15" y2="14" stroke="currentColor" stroke-width="1.5" stroke-linecap="round"></line>
    <line x1="12" y1="11" x2="12" y2="17" stroke="currentColor" stroke-width="1.5" stroke-linecap="round"></line>
  </symbol>

  <symbol id="icon-page-delete" viewBox="0 0 24 24">
    <path d="M14 3 H6 A1 1 0 0 0 5 4 V20 A1 1 0 0 0 6 21 H18 A1 1 0 0 0 19 20 V8 Z" fill="none" stroke="currentColor" stroke-width="1.5" stroke-linejoin="round"></path>
    <path d="M14 3 V8 H19" fill="none" stroke="currentColor" stroke-width="1.5" stroke-linejoin="round"></path>
    <line x1="9.5" y1="12" x2="14.5" y2="17" stroke="currentColor" stroke-width="1.5" stroke-linecap="round"></line>
    <line x1="14.5" y1="12" x2="9.5" y2="17" stroke="currentColor" stroke-width="1.5" stroke-linecap="round"></line>
  </symbol>

  <symbol id="icon-merge" viewBox="0 0 24 24">
    <rect x="2" y="4" width="9" height="11" rx="1" fill="none" stroke="currentColor" stroke-width="1.5"></rect>
    <rect x="13" y="4" width="9" height="11" rx="1" fill="none" stroke="currentColor" stroke-width="1.5"></rect>
    <path d="M7 15 L7 19 L17 19 L17 15" fill="none" stroke="currentColor" stroke-width="1.5" stroke-linecap="round" stroke-linejoin="round"></path>
    <line x1="12" y1="19" x2="12" y2="22" stroke="currentColor" stroke-width="1.5" stroke-linecap="round"></line>
  </symbol>

  <symbol id="icon-split" viewBox="0 0 24 24">
    <line x1="12" y1="2" x2="12" y2="5" stroke="currentColor" stroke-width="1.5" stroke-linecap="round"></line>
    <path d="M12 5 L7 9 L2 9 L2 20 L11 20 L11 9" fill="none" stroke="currentColor" stroke-width="1.5" stroke-linecap="round" stroke-linejoin="round"></path>
    <path d="M12 5 L17 9 L22 9 L22 20 L13 20 L13 9" fill="none" stroke="currentColor" stroke-width="1.5" stroke-linecap="round" stroke-linejoin="round"></path>
  </symbol>

  

  <symbol id="icon-select" viewBox="0 0 24 24">
    <path d="M5 3 L5 19 L9 15 L12 21 L14 20 L11 14 L17 14 Z" fill="none" stroke="currentColor" stroke-width="1.5" stroke-linecap="round" stroke-linejoin="round"></path>
  </symbol>

  <symbol id="icon-text" viewBox="0 0 24 24">
    <line x1="4" y1="6" x2="20" y2="6" stroke="currentColor" stroke-width="1.5" stroke-linecap="round"></line>
    <line x1="12" y1="6" x2="12" y2="20" stroke="currentColor" stroke-width="1.5" stroke-linecap="round"></line>
    <line x1="9" y1="20" x2="15" y2="20" stroke="currentColor" stroke-width="1.5" stroke-linecap="round"></line>
  </symbol>

  <symbol id="icon-highlight" viewBox="0 0 24 24">
    
    <path d="M5 14 L10 4 L16 4 L18 8 L13 18 Z" fill="none" stroke="currentColor" stroke-width="1.5" stroke-linejoin="round"></path>
    
    <line x1="10" y1="4" x2="16" y2="4" stroke="currentColor" stroke-width="2" stroke-linecap="round"></line>
    
    <path d="M5 14 L13 18 L11 21 L4 17 Z" fill="currentColor"></path>
    
    <line x1="3" y1="22" x2="15" y2="22" stroke="currentColor" stroke-width="1.5" stroke-linecap="round"></line>
  </symbol>

  <symbol id="icon-comment" viewBox="0 0 24 24">
    <path d="M4 4 H20 A1 1 0 0 1 21 5 V15 A1 1 0 0 1 20 16 H8 L4 20 V16 A1 1 0 0 1 3 15 V5 A1 1 0 0 1 4 4 Z" fill="none" stroke="currentColor" stroke-width="1.5" stroke-linejoin="round"></path>
    <line x1="8" y1="9" x2="16" y2="9" stroke="currentColor" stroke-width="1.5" stroke-linecap="round"></line>
    <line x1="8" y1="12" x2="13" y2="12" stroke="currentColor" stroke-width="1.5" stroke-linecap="round"></line>
  </symbol>

  <symbol id="icon-sign" viewBox="0 0 24 24">
    <path d="M3 17 C5.5 17 6.5 14 8.5 14 C10.5 14 10.5 17 12.5 17 C14.5 17 15.5 14 17.5 14" fill="none" stroke="currentColor" stroke-width="1.5" stroke-linecap="round"></path>
    <line x1="17.5" y1="14" x2="21" y2="9" stroke="currentColor" stroke-width="1.5" stroke-linecap="round"></line>
    <path d="M19.5 7 L22.5 7 L21.5 10" fill="none" stroke="currentColor" stroke-width="1.5" stroke-linecap="round" stroke-linejoin="round"></path>
    <line x1="3" y1="20" x2="21" y2="20" stroke="currentColor" stroke-width="1.5" stroke-linecap="round" stroke-dasharray="2 1.5"></line>
  </symbol>

  <symbol id="icon-redact" viewBox="0 0 24 24">
    <rect x="3" y="9" width="18" height="6" rx="1" fill="currentColor"></rect>
    <line x1="3" y1="6" x2="21" y2="6" stroke="currentColor" stroke-width="1.5" stroke-linecap="round" stroke-dasharray="2 1.5"></line>
    <line x1="3" y1="18" x2="21" y2="18" stroke="currentColor" stroke-width="1.5" stroke-linecap="round" stroke-dasharray="2 1.5"></line>
  </symbol>

  <symbol id="icon-link" viewBox="0 0 24 24">
    <path d="M10 14 A4 4 0 0 1 10 7 L13 7 A4 4 0 0 1 13 14" fill="none" stroke="currentColor" stroke-width="1.5" stroke-linecap="round"></path>
    <path d="M14 10 A4 4 0 0 1 14 17 L11 17 A4 4 0 0 1 11 10" fill="none" stroke="currentColor" stroke-width="1.5" stroke-linecap="round"></path>
    <line x1="10" y1="10.5" x2="14" y2="10.5" stroke="currentColor" stroke-width="1.5" stroke-linecap="round"></line>
  </symbol>

  <symbol id="icon-image" viewBox="0 0 24 24">
    <rect x="3" y="5" width="18" height="14" rx="1.5" fill="none" stroke="currentColor" stroke-width="1.5"></rect>
    <circle cx="8.5" cy="9.5" r="1.5" fill="none" stroke="currentColor" stroke-width="1.5"></circle>
    <path d="M3 16 L8 11 L12 15 L15 12 L21 17" fill="none" stroke="currentColor" stroke-width="1.5" stroke-linecap="round" stroke-linejoin="round"></path>
  </symbol>

  <symbol id="icon-bookmark" viewBox="0 0 24 24">
    <path d="M6 3 H18 A1 1 0 0 1 19 4 V21 L12 17 L5 21 V4 A1 1 0 0 1 6 3 Z" fill="none" stroke="currentColor" stroke-width="1.5" stroke-linejoin="round"></path>
  </symbol>

  

  <symbol id="icon-select-text" viewBox="0 0 24 24">
    <line x1="9" y1="5" x2="15" y2="5" stroke="currentColor" stroke-width="1.5" stroke-linecap="round"></line>
    <line x1="12" y1="5" x2="12" y2="19" stroke="currentColor" stroke-width="1.5" stroke-linecap="round"></line>
    <line x1="9" y1="19" x2="15" y2="19" stroke="currentColor" stroke-width="1.5" stroke-linecap="round"></line>
    <rect x="12" y="9" width="7" height="5" rx="0.5" fill="currentColor" opacity="0.18"></rect>
    <rect x="12" y="9" width="7" height="5" rx="0.5" fill="none" stroke="currentColor" stroke-width="1" stroke-dasharray="2 1.5"></rect>
  </symbol>

  <symbol id="icon-text-block" viewBox="0 0 24 24">
    <rect x="3" y="3" width="18" height="18" rx="1.5" fill="none" stroke="currentColor" stroke-width="1.5" stroke-dasharray="3 2"></rect>
    <line x1="7" y1="8.5" x2="17" y2="8.5" stroke="currentColor" stroke-width="1.5" stroke-linecap="round"></line>
    <line x1="7" y1="12" x2="17" y2="12" stroke="currentColor" stroke-width="1.5" stroke-linecap="round"></line>
    <line x1="7" y1="15.5" x2="12" y2="15.5" stroke="currentColor" stroke-width="1.5" stroke-linecap="round"></line>
    <line x1="13" y1="14" x2="13" y2="17" stroke="currentColor" stroke-width="1.5" stroke-linecap="round"></line>
    <line x1="11.5" y1="14" x2="14.5" y2="14" stroke="currentColor" stroke-width="1.5" stroke-linecap="round"></line>
    <line x1="11.5" y1="17" x2="14.5" y2="17" stroke="currentColor" stroke-width="1.5" stroke-linecap="round"></line>
  </symbol>

  <symbol id="icon-settings" viewBox="0 0 24 24">
    <circle cx="12" cy="12" r="3" fill="none" stroke="currentColor" stroke-width="1.5"></circle>
    <path d="M19.4 15a1.65 1.65 0 0 0 .33 1.82l.06.06a2 2 0 0 1-2.83 2.83l-.06-.06a1.65 1.65 0 0 0-1.82-.33 1.65 1.65 0 0 0-1 1.51V21a2 2 0 0 1-4 0v-.09A1.65 1.65 0 0 0 9 19.4a1.65 1.65 0 0 0-1.82.33l-.06.06a2 2 0 0 1-2.83-2.83l.06-.06A1.65 1.65 0 0 0 4.68 15a1.65 1.65 0 0 0-1.51-1H3a2 2 0 0 1 0-4h.09A1.65 1.65 0 0 0 4.6 9a1.65 1.65 0 0 0-.33-1.82l-.06-.06a2 2 0 0 1 2.83-2.83l.06.06A1.65 1.65 0 0 0 9 4.68a1.65 1.65 0 0 0 1-1.51V3a2 2 0 0 1 4 0v.09a1.65 1.65 0 0 0 1 1.51 1.65 1.65 0 0 0 1.82-.33l.06-.06a2 2 0 0 1 2.83 2.83l-.06.06A1.65 1.65 0 0 0 19.4 9a1.65 1.65 0 0 0 1.51 1H21a2 2 0 0 1 0 4h-.09a1.65 1.65 0 0 0-1.51 1z" fill="none" stroke="currentColor" stroke-width="1.5" stroke-linecap="round" stroke-linejoin="round"></path>
  </symbol>

  <symbol id="icon-draw-line" viewBox="0 0 24 24">
    <path d="M6 18 C8 12 14 8 18 6" fill="none" stroke="currentColor" stroke-width="1.5" stroke-linecap="round"></path>
    <circle cx="6" cy="18" r="2.5" fill="none" stroke="currentColor" stroke-width="1.5"></circle>
    <circle cx="18" cy="6" r="2.5" fill="none" stroke="currentColor" stroke-width="1.5"></circle>
  </symbol>

  

  <symbol id="icon-layer-up" viewBox="0 0 24 24">
    <rect x="3" y="4" width="14" height="4.5" rx="0.5" fill="none" stroke="currentColor" stroke-width="1.5"></rect>
    <rect x="3" y="10" width="14" height="4.5" rx="0.5" fill="currentColor"></rect>
    <rect x="3" y="16" width="14" height="4.5" rx="0.5" fill="none" stroke="currentColor" stroke-width="1.5"></rect>
    <line x1="21" y1="16" x2="21" y2="8" stroke="currentColor" stroke-width="1.5" stroke-linecap="round"></line>
    <polyline points="19,10 21,8 23,10" fill="none" stroke="currentColor" stroke-width="1.5" stroke-linecap="round" stroke-linejoin="round"></polyline>
  </symbol>

  <symbol id="icon-layer-down" viewBox="0 0 24 24">
    <rect x="3" y="4" width="14" height="4.5" rx="0.5" fill="none" stroke="currentColor" stroke-width="1.5"></rect>
    <rect x="3" y="10" width="14" height="4.5" rx="0.5" fill="currentColor"></rect>
    <rect x="3" y="16" width="14" height="4.5" rx="0.5" fill="none" stroke="currentColor" stroke-width="1.5"></rect>
    <line x1="21" y1="8" x2="21" y2="16" stroke="currentColor" stroke-width="1.5" stroke-linecap="round"></line>
    <polyline points="19,14 21,16 23,14" fill="none" stroke="currentColor" stroke-width="1.5" stroke-linecap="round" stroke-linejoin="round"></polyline>
  </symbol>

  <symbol id="icon-layer-top" viewBox="0 0 24 24">
    <rect x="3" y="4" width="14" height="4.5" rx="0.5" fill="currentColor"></rect>
    <rect x="3" y="10" width="14" height="4.5" rx="0.5" fill="none" stroke="currentColor" stroke-width="1.5"></rect>
    <rect x="3" y="16" width="14" height="4.5" rx="0.5" fill="none" stroke="currentColor" stroke-width="1.5"></rect>
    <line x1="19" y1="3.5" x2="23" y2="3.5" stroke="currentColor" stroke-width="1.5" stroke-linecap="round"></line>
    <polyline points="19,11 21,9 23,11" fill="none" stroke="currentColor" stroke-width="1.5" stroke-linecap="round" stroke-linejoin="round"></polyline>
    <polyline points="19,15 21,13 23,15" fill="none" stroke="currentColor" stroke-width="1.5" stroke-linecap="round" stroke-linejoin="round"></polyline>
  </symbol>

  <symbol id="icon-layer-bottom" viewBox="0 0 24 24">
    <rect x="3" y="4" width="14" height="4.5" rx="0.5" fill="none" stroke="currentColor" stroke-width="1.5"></rect>
    <rect x="3" y="10" width="14" height="4.5" rx="0.5" fill="none" stroke="currentColor" stroke-width="1.5"></rect>
    <rect x="3" y="16" width="14" height="4.5" rx="0.5" fill="currentColor"></rect>
    <line x1="19" y1="20.5" x2="23" y2="20.5" stroke="currentColor" stroke-width="1.5" stroke-linecap="round"></line>
    <polyline points="19,9 21,11 23,9" fill="none" stroke="currentColor" stroke-width="1.5" stroke-linecap="round" stroke-linejoin="round"></polyline>
    <polyline points="19,13 21,15 23,13" fill="none" stroke="currentColor" stroke-width="1.5" stroke-linecap="round" stroke-linejoin="round"></polyline>
  </symbol>

  

  <symbol id="icon-document-unlock" viewBox="0 0 24 24">
    <path d="M13 3 H6 A1 1 0 0 0 5 4 V20 A1 1 0 0 0 6 21 H18 A1 1 0 0 0 19 20 V9 Z" fill="none" stroke="currentColor" stroke-width="1.5" stroke-linejoin="round"></path>
    <path d="M13 3 V9 H19" fill="none" stroke="currentColor" stroke-width="1.5" stroke-linejoin="round"></path>
    <rect x="9" y="13" width="7" height="5" rx="1" fill="none" stroke="currentColor" stroke-width="1.5"></rect>
    <path d="M9.5 13 V11.5 A2.5 2.5 0 0 1 14.5 11.5" fill="none" stroke="currentColor" stroke-width="1.5" stroke-linecap="round"></path>
  </symbol>

  <symbol id="icon-document-open-recent" viewBox="0 0 24 24">
    <path d="M13 3 H6 A1 1 0 0 0 5 4 V20 A1 1 0 0 0 6 21 H18 A1 1 0 0 0 19 20 V9 Z" fill="none" stroke="currentColor" stroke-width="1.5" stroke-linejoin="round"></path>
    <path d="M13 3 V9 H19" fill="none" stroke="currentColor" stroke-width="1.5" stroke-linejoin="round"></path>
    <circle cx="12" cy="15.5" r="3.5" fill="none" stroke="currentColor" stroke-width="1.5"></circle>
    <polyline points="12,13.5 12,15.5 13.5,16.5" fill="none" stroke="currentColor" stroke-width="1.5" stroke-linecap="round" stroke-linejoin="round"></polyline>
  </symbol>

  <symbol id="icon-scanner" viewBox="0 0 24 24">
    <rect x="3" y="6" width="18" height="12" rx="1.5" fill="none" stroke="currentColor" stroke-width="1.5"></rect>
    <line x1="3" y1="12" x2="21" y2="12" stroke="currentColor" stroke-width="2" stroke-linecap="round"></line>
    <rect x="7" y="3" width="10" height="3" rx="0.5" fill="none" stroke="currentColor" stroke-width="1.5"></rect>
    <line x1="7" y1="19" x2="7" y2="22" stroke="currentColor" stroke-width="1.5" stroke-linecap="round"></line>
    <line x1="17" y1="19" x2="17" y2="22" stroke="currentColor" stroke-width="1.5" stroke-linecap="round"></line>
  </symbol>

  <symbol id="icon-application-certificate" viewBox="0 0 24 24">
    <rect x="3" y="3" width="18" height="14" rx="1.5" fill="none" stroke="currentColor" stroke-width="1.5"></rect>
    <line x1="7" y1="8" x2="17" y2="8" stroke="currentColor" stroke-width="1.5" stroke-linecap="round"></line>
    <line x1="7" y1="11" x2="13" y2="11" stroke="currentColor" stroke-width="1.5" stroke-linecap="round"></line>
    <circle cx="17" cy="19" r="3" fill="none" stroke="currentColor" stroke-width="1.5"></circle>
    <polyline points="14.5,18.5 16.5,20.5 20,17" fill="none" stroke="currentColor" stroke-width="1.5" stroke-linecap="round" stroke-linejoin="round"></polyline>
  </symbol>

  <symbol id="icon-transform-move" viewBox="0 0 24 24">
    <line x1="12" y1="3" x2="12" y2="21" stroke="currentColor" stroke-width="1.5" stroke-linecap="round"></line>
    <line x1="3" y1="12" x2="21" y2="12" stroke="currentColor" stroke-width="1.5" stroke-linecap="round"></line>
    <polyline points="9,6 12,3 15,6" fill="none" stroke="currentColor" stroke-width="1.5" stroke-linecap="round" stroke-linejoin="round"></polyline>
    <polyline points="9,18 12,21 15,18" fill="none" stroke="currentColor" stroke-width="1.5" stroke-linecap="round" stroke-linejoin="round"></polyline>
    <polyline points="6,9 3,12 6,15" fill="none" stroke="currentColor" stroke-width="1.5" stroke-linecap="round" stroke-linejoin="round"></polyline>
    <polyline points="18,9 21,12 18,15" fill="none" stroke="currentColor" stroke-width="1.5" stroke-linecap="round" stroke-linejoin="round"></polyline>
  </symbol>

  <symbol id="icon-input-mouse" viewBox="0 0 24 24">
    <path d="M12 3 H8 A4 4 0 0 0 4 7 V17 A4 4 0 0 0 8 21 H16 A4 4 0 0 0 20 17 V7 A4 4 0 0 0 16 3 H12 Z" fill="none" stroke="currentColor" stroke-width="1.5"></path>
    <line x1="12" y1="3" x2="12" y2="10" stroke="currentColor" stroke-width="1.5"></line>
    <circle cx="12" cy="13.5" r="1.5" fill="currentColor"></circle>
  </symbol>

  <symbol id="icon-draw-encircle" viewBox="0 0 24 24">
    <path d="M12 5 C16 4 21 6 21 9 C21 13 17 14 14 13 C11 12 9 10 9 8 C9 6 10 5 12 5 Z" fill="none" stroke="currentColor" stroke-width="1.5" stroke-linecap="round"></path>
    <path d="M14 13 C17 14 21 16 20 19 C19 22 14 22 10 21 C6 20 3 17 4 14 C5 11 8 10 11 11" fill="none" stroke="currentColor" stroke-width="1.5" stroke-linecap="round"></path>
    <polyline points="9,12 11,11 10,13.5" fill="none" stroke="currentColor" stroke-width="1.5" stroke-linecap="round" stroke-linejoin="round"></polyline>
  </symbol>

  <symbol id="icon-draw-freehand" viewBox="0 0 24 24">
    <path d="M4 18 C6 14 7 11 9 10 C11 9 11 12 13 12 C15 12 15 9 17 8 C19 7 20 9 20 11" fill="none" stroke="currentColor" stroke-width="1.5" stroke-linecap="round" stroke-linejoin="round"></path>
    <circle cx="4" cy="18" r="1.5" fill="none" stroke="currentColor" stroke-width="1.5"></circle>
    <circle cx="20" cy="11" r="1.5" fill="none" stroke="currentColor" stroke-width="1.5"></circle>
  </symbol>

  <symbol id="icon-edit-paste" viewBox="0 0 24 24">
    <rect x="8" y="3" width="8" height="3" rx="1" fill="none" stroke="currentColor" stroke-width="1.5"></rect>
    <path d="M8 4.5 H5 A1 1 0 0 0 4 5.5 V20 A1 1 0 0 0 5 21 H19 A1 1 0 0 0 20 20 V5.5 A1 1 0 0 0 19 4.5 H16" fill="none" stroke="currentColor" stroke-width="1.5" stroke-linejoin="round"></path>
    <line x1="9" y1="12" x2="15" y2="12" stroke="currentColor" stroke-width="1.5" stroke-linecap="round"></line>
    <line x1="9" y1="15" x2="15" y2="15" stroke="currentColor" stroke-width="1.5" stroke-linecap="round"></line>
    <line x1="9" y1="9" x2="12" y2="9" stroke="currentColor" stroke-width="1.5" stroke-linecap="round"></line>
  </symbol>

  <symbol id="icon-file-document" viewBox="0 0 24 24">
    <path d="M14 3 H6 A1 1 0 0 0 5 4 V20 A1 1 0 0 0 6 21 H18 A1 1 0 0 0 19 20 V8 Z" fill="none" stroke="currentColor" stroke-width="1.5" stroke-linejoin="round"></path>
    <path d="M14 3 V8 H19" fill="none" stroke="currentColor" stroke-width="1.5" stroke-linejoin="round"></path>
    <line x1="8" y1="12" x2="16" y2="12" stroke="currentColor" stroke-width="1.5" stroke-linecap="round"></line>
    <line x1="8" y1="15" x2="16" y2="15" stroke="currentColor" stroke-width="1.5" stroke-linecap="round"></line>
    <line x1="8" y1="18" x2="12" y2="18" stroke="currentColor" stroke-width="1.5" stroke-linecap="round"></line>
  </symbol>

  

  <symbol id="icon-draw-rectangle" viewBox="0 0 24 24">
    
    <rect x="4" y="6" width="16" height="12" rx="1" fill="none" stroke="currentColor" stroke-width="1.5"></rect>
    
    <rect x="2.5" y="4.5" width="3" height="3" rx="0.5" fill="currentColor"></rect>
    <rect x="18.5" y="4.5" width="3" height="3" rx="0.5" fill="currentColor"></rect>
    <rect x="2.5" y="16.5" width="3" height="3" rx="0.5" fill="currentColor"></rect>
    <rect x="18.5" y="16.5" width="3" height="3" rx="0.5" fill="currentColor"></rect>
  </symbol>

  <symbol id="icon-edit-multiline-text" viewBox="0 0 24 24">
    
    <rect x="3" y="4" width="18" height="16" rx="1.5" fill="none" stroke="currentColor" stroke-width="1.5"></rect>
    
    <line x1="7" y1="9" x2="17" y2="9" stroke="currentColor" stroke-width="1.5" stroke-linecap="round"></line>
    <line x1="7" y1="12" x2="17" y2="12" stroke="currentColor" stroke-width="1.5" stroke-linecap="round"></line>
    <line x1="7" y1="15" x2="13" y2="15" stroke="currentColor" stroke-width="1.5" stroke-linecap="round"></line>
    
    <line x1="14" y1="13.5" x2="14" y2="17" stroke="currentColor" stroke-width="1.5" stroke-linecap="round"></line>
    <line x1="12.5" y1="13.5" x2="15.5" y2="13.5" stroke="currentColor" stroke-width="1.5" stroke-linecap="round"></line>
    <line x1="12.5" y1="17" x2="15.5" y2="17" stroke="currentColor" stroke-width="1.5" stroke-linecap="round"></line>
  </symbol>

  <symbol id="icon-edit-singleline-text" viewBox="0 0 24 24">
    
    <line x1="3" y1="17" x2="21" y2="17" stroke="currentColor" stroke-width="1.5" stroke-linecap="round"></line>
    
    <path d="M6 17 L9 8 L12 17" fill="none" stroke="currentColor" stroke-width="1.5" stroke-linecap="round" stroke-linejoin="round"></path>
    <line x1="7" y1="13.5" x2="11" y2="13.5" stroke="currentColor" stroke-width="1.5" stroke-linecap="round"></line>
    
    <line x1="14" y1="10" x2="14" y2="17" stroke="currentColor" stroke-width="1.5" stroke-linecap="round"></line>
    <line x1="12.5" y1="10" x2="15.5" y2="10" stroke="currentColor" stroke-width="1.5" stroke-linecap="round"></line>
  </symbol>

</svg>